<svg width="21" height="14" viewBox="0 0 21 14" fill="none" xmlns="http://www.w3.org/2000/svg">
<path d="M21.0262 2.33998C20.2502 2.60248 19.4184 2.77873 18.5439 2.85873C19.4364 2.45123 20.1222 1.80623 20.4438 1.03874C19.6103 1.41499 18.6834 1.68874 17.7007 1.83623C16.9132 1.19624 15.791 0.797485 14.549 0.797485C12.1635 0.797485 10.2292 2.26998 10.2292 4.08748C10.2292 4.34498 10.2686 4.59623 10.3425 4.83748C6.75276 4.69998 3.57159 3.38998 1.44042 1.39874C1.068 1.88623 0.856358 2.45123 0.856358 3.05373C0.856358 4.19498 1.61761 5.20248 2.77753 5.79373C2.06878 5.77623 1.40269 5.62748 0.820264 5.38123C0.820264 5.39498 0.820264 5.40873 0.820264 5.42248C0.820264 7.01748 2.30995 8.34623 4.28362 8.64998C3.92269 8.72498 3.54042 8.76498 3.14667 8.76498C2.86776 8.76498 2.59706 8.74498 2.33292 8.70498C2.88417 10.0112 4.47886 10.965 6.36722 10.9912C4.89065 11.8737 3.02855 12.3987 1.00401 12.3987C0.654561 12.3987 0.31167 12.3837 -0.0246582 12.3525C1.88503 13.2875 4.15565 13.8312 6.59526 13.8312C14.5392 13.8312 18.8835 8.81748 18.8835 4.46998C18.8835 4.32748 18.8786 4.18373 18.8721 4.04373C19.7153 3.57998 20.4471 2.99998 21.0262 2.33998Z" fill="black"/>
</svg>
