<svg width="19" height="17" viewBox="0 0 19 17" fill="none" xmlns="http://www.w3.org/2000/svg">
<path d="M18.7934 10.5291V11.4309C18.7934 11.4827 18.7595 11.5287 18.7101 11.5488C18.4081 11.6697 17.374 12.1127 16.944 12.6708C15.8468 14.0962 15.0084 16.1344 13.1344 16.1344H5.31635C2.54545 16.1344 0.300049 14.0315 0.300049 11.4367V11.3532C0.300049 11.2842 0.360149 11.2281 0.434116 11.2281H4.79238C4.87868 11.2281 4.94188 11.3029 4.93418 11.382C4.90335 11.6467 4.95575 11.9171 5.08981 12.163C5.34871 12.6535 5.88505 12.9599 6.46448 12.9599H8.62205V11.3878H6.48915C6.37972 11.3878 6.31502 11.2698 6.37818 11.1864C6.40132 11.1533 6.42752 11.1188 6.45525 11.0799C6.65712 10.8124 6.94532 10.3967 7.23195 9.92348C7.42768 9.60418 7.61725 9.26327 7.76981 8.92095C7.80065 8.8591 7.82528 8.79582 7.84995 8.73394C7.89155 8.62465 7.93472 8.52251 7.96552 8.42041C7.99635 8.3341 8.02102 8.24348 8.04568 8.15861C8.11812 7.86806 8.14892 7.56025 8.14892 7.24092C8.14892 7.11579 8.14275 6.98491 8.13042 6.85975C8.12428 6.72311 8.10578 6.58647 8.08728 6.44983C8.07495 6.32899 8.05185 6.20962 8.02718 6.08449C7.99635 5.90181 7.95321 5.72058 7.90388 5.5379L7.88695 5.46886C7.84995 5.34374 7.81912 5.22433 7.77598 5.0992C7.65422 4.70652 7.51398 4.32391 7.36605 3.96576C7.31212 3.82337 7.25045 3.68673 7.18882 3.55009C7.09788 3.34438 7.00541 3.1574 6.92065 2.98047C6.87751 2.89993 6.84052 2.82657 6.80355 2.75178C6.76192 2.6669 6.71878 2.58206 6.67561 2.50149C6.64481 2.43964 6.60935 2.38211 6.58468 2.32459L6.32118 1.87006C6.28418 1.80821 6.34582 1.73485 6.41825 1.75354L8.06725 2.17068H8.07188C8.07495 2.17068 8.07805 2.17211 8.07805 2.17211L8.29531 2.22821L8.53421 2.29149L8.62205 2.31451V1.39972C8.62205 0.958127 9.00115 0.599976 9.46965 0.599976C9.70391 0.599976 9.91658 0.68914 10.0691 0.834429C10.2217 0.979718 10.3173 1.17821 10.3173 1.39972V2.75753L10.4929 2.80354C10.5068 2.80787 10.5207 2.81362 10.533 2.82224C10.5762 2.85245 10.6378 2.89706 10.7164 2.9517C10.778 2.99774 10.8443 3.05383 10.9245 3.11136C11.0832 3.23076 11.2727 3.38467 11.4808 3.56157C11.5363 3.60618 11.5902 3.65219 11.6395 3.69824C11.9077 3.93123 12.2082 4.20454 12.4948 4.5066C12.575 4.59144 12.6536 4.67774 12.7337 4.76837C12.8139 4.86042 12.8986 4.95105 12.9726 5.04168C13.0697 5.16248 13.1745 5.28761 13.2654 5.41853C13.3085 5.48038 13.3579 5.54365 13.3995 5.6055C13.5166 5.77092 13.6199 5.9421 13.7185 6.11324C13.7601 6.19235 13.8032 6.27866 13.8402 6.36353C13.9496 6.59222 14.036 6.82525 14.0914 7.05827C14.1084 7.10861 14.1207 7.16327 14.1269 7.21218V7.22366C14.1454 7.29272 14.1515 7.36608 14.1577 7.44087C14.1824 7.67962 14.17 7.9184 14.1145 8.15861C14.0914 8.26074 14.0606 8.3571 14.0236 8.45923C13.9866 8.55705 13.9496 8.65915 13.9019 8.75553C13.8094 8.95545 13.7 9.15541 13.5705 9.34238C13.5289 9.41142 13.4796 9.48478 13.4303 9.55381C13.3764 9.62718 13.3209 9.69624 13.2716 9.76385C13.2038 9.85015 13.1313 9.94074 13.0573 10.0213C12.9911 10.1062 12.9233 10.191 12.8493 10.2658C12.746 10.3794 12.6474 10.4873 12.5442 10.5909C12.4825 10.6585 12.4162 10.7275 12.3484 10.7894C12.2822 10.8584 12.2144 10.9203 12.1527 10.9778C12.0495 11.0742 11.9632 11.149 11.8907 11.2108L11.7212 11.3561C11.6965 11.3762 11.6642 11.3878 11.6303 11.3878H10.3173V12.9599H11.9693C12.3392 12.9599 12.6906 12.8376 12.9741 12.6133C13.0712 12.5341 13.495 12.1918 13.9959 11.6754C14.0128 11.6582 14.0344 11.6452 14.0591 11.6395L18.6223 10.4082C18.7071 10.3852 18.7934 10.4456 18.7934 10.5291Z" fill="black"/>
</svg>
