<svg width="24" height="16" viewBox="0 0 24 16" fill="none" xmlns="http://www.w3.org/2000/svg">
<path d="M20.317 1.42479C18.7873 0.820742 17.147 0.375709 15.4319 0.12082C15.4007 0.115901 15.3695 0.128194 15.3534 0.152782C15.1424 0.475695 14.9087 0.89696 14.7451 1.22807C12.9004 0.9904 11.0652 0.9904 9.25832 1.22807C9.09465 0.8896 8.85248 0.475695 8.64057 0.152782C8.62449 0.129015 8.59328 0.116721 8.56205 0.12082C6.84791 0.374894 5.20756 0.819927 3.67693 1.42479C3.66368 1.4297 3.65233 1.43791 3.64479 1.44855C0.533392 5.44896 -0.31895 9.35104 0.0991801 13.2047C0.101072 13.2236 0.11337 13.2416 0.130398 13.2531C2.18321 14.5505 4.17171 15.3381 6.12328 15.8602C6.15451 15.8684 6.18761 15.8586 6.20748 15.8364C6.66913 15.2939 7.08064 14.7218 7.43348 14.1202C7.4543 14.085 7.43442 14.0432 7.39186 14.0292C6.73913 13.8162 6.1176 13.5563 5.51973 13.2613C5.47244 13.2375 5.46865 13.1793 5.51216 13.1515C5.63797 13.0703 5.76382 12.9859 5.88396 12.9007C5.90569 12.8851 5.93598 12.8818 5.96153 12.8916C9.88928 14.4349 14.1415 14.4349 18.023 12.8916C18.0485 12.881 18.0788 12.8843 18.1015 12.8998C18.2216 12.9851 18.3475 13.0703 18.4742 13.1515C18.5177 13.1793 18.5149 13.2375 18.4676 13.2613C17.8697 13.5621 17.2482 13.8162 16.5945 14.0284C16.552 14.0424 16.533 14.085 16.5538 14.1202C16.9143 14.721 17.3258 15.293 17.7789 15.8356C17.7978 15.8586 17.8319 15.8684 17.8631 15.8602C19.8241 15.3381 21.8126 14.5505 23.8654 13.2531C23.8834 13.2416 23.8948 13.2244 23.8967 13.2056C24.3971 8.75026 23.0585 4.88018 20.3482 1.44937C20.3416 1.43791 20.3303 1.4297 20.317 1.42479ZM8.02002 10.8582C6.8375 10.8582 5.86313 9.92393 5.86313 8.7765C5.86313 7.62906 6.8186 6.69475 8.02002 6.69475C9.23087 6.69475 10.1958 7.63727 10.1769 8.7765C10.1769 9.92393 9.22141 10.8582 8.02002 10.8582ZM15.9947 10.8582C14.8123 10.8582 13.8379 9.92393 13.8379 8.7765C13.8379 7.62906 14.7933 6.69475 15.9947 6.69475C17.2056 6.69475 18.1705 7.63727 18.1516 8.7765C18.1516 9.92393 17.2056 10.8582 15.9947 10.8582Z" fill="#23272A"/>
</svg>
